# xmcd CD database file
#
# Track frame offsets:
#	150
#	20482
#	38025
#	55342
#	72517
#	93043
#	107961
#	125423
#	149963
#
# Disc length: 3255 seconds
#
# Revision: 0
# Processed by: cddbd v1.5.2PL0 Copyright (c) Steve Scherf et al.
# Submitted via: CDex 1.70beta2
#
DISCID=840cb509
DTITLE=Neal McCarthy - The Sassaquin Sessions
DYEAR=2007
DGENRE=Blues
TTITLE0=Ain't Our Blood
TTITLE1=The Lamb
TTITLE2=Everybody Somebody
TTITLE3=Long Way Away
TTITLE4=Somewhere
TTITLE5=Some Help You Live (Some Help You Die)
TTITLE6=Are You Gone (Shot My Wife)
TTITLE7=Fix Me One More Drink
TTITLE8=Data Track
EXTD=YEAR: 2007
EXTT0=
EXTT1=
EXTT2=
EXTT3=
EXTT4=
EXTT5=
EXTT6=
EXTT7=
EXTT8=
PLAYORDER=
